<!--?xml version="1.0" encoding="utf-8"?-->
<!-- Svg Vector Icons : http://www.onlinewebfonts.com/icon -->

<svg version="1.1" xmlns="http://www.w3.org/2000/svg" xmlns:xlink="http://www.w3.org/1999/xlink" x="0px" y="0px" viewBox="0 0 256 256" enable-background="new 0 0 256 256" xml:space="preserve">
<metadata> Svg Vector Icons : http://www.onlinewebfonts.com/icon </metadata>
<g><g><path fill="#e00037" data-title="Layer 0" xs="0" d="M228.2,32.3h-24c-2.3,0-4.1,1.9-4.1,4.1c0,2.3,1.9,4.1,4.1,4.1h24c5.3,0,9.6,3.4,9.6,7.6v178.3c0,4.1-4.4,7.6-9.6,7.6H27.8c-5.2,0-9.6-3.5-9.6-7.6V97.2h201c2.3,0,4.1-1.9,4.1-4.1c0-2.3-1.9-4.1-4.1-4.1h-201V48.2c0-4.2,4.3-7.6,9.6-7.6h21.5c2.3,0,4.1-1.9,4.1-4.1c0-2.3-1.9-4.1-4.1-4.1H27.8C18,32.3,10,39.4,10,48.2v178.3c0,8.7,8,15.9,17.8,15.9h200.3c9.8,0,17.8-7.1,17.8-15.9V48.2C246,39.4,238,32.3,228.2,32.3z"/><path fill="#e00037" data-title="Layer 1" xs="1" d="M101.2,41.1h46.9c2.3,0,4.1-1.9,4.1-4.1s-1.9-4.1-4.1-4.1h-46.9c-2.3,0-4.1,1.9-4.1,4.1C97.1,39.3,98.9,41.1,101.2,41.1z"/><path fill="#e00037" data-title="Layer 2" xs="2" d="M73.6,57.1c2.3,0,4.1-1.9,4.1-4.1V17.8c0-2.3-1.9-4.1-4.1-4.1c-2.3,0-4.1,1.9-4.1,4.1v35.2C69.5,55.2,71.3,57.1,73.6,57.1z"/><path fill="#e00037" data-title="Layer 3" xs="3" d="M174,57.1c2.3,0,4.1-1.9,4.1-4.1V17.8c0-2.3-1.9-4.1-4.1-4.1c-2.3,0-4.1,1.9-4.1,4.1v35.2C169.9,55.2,171.8,57.1,174,57.1z"/><path fill="#e00037" data-title="Layer 4" xs="4" d="M77.8,121.8H54.3c-2.3,0-4.1,1.9-4.1,4.1c0,2.3,1.9,4.1,4.1,4.1h23.4c2.3,0,4.1-1.9,4.1-4.1C81.9,123.6,80.1,121.8,77.8,121.8z"/><path fill="#e00037" data-title="Layer 5" xs="5" d="M77.8,155.2H54.3c-2.3,0-4.1,1.9-4.1,4.1c0,2.3,1.9,4.1,4.1,4.1h23.4c2.3,0,4.1-1.9,4.1-4.1C81.9,157,80.1,155.2,77.8,155.2z"/><path fill="#e00037" data-title="Layer 6" xs="6" d="M77.8,197H54.3c-2.3,0-4.1,1.9-4.1,4.1c0,2.3,1.9,4.1,4.1,4.1h23.4c2.3,0,4.1-1.9,4.1-4.1C81.9,198.9,80.1,197,77.8,197z"/><path fill="#e00037" data-title="Layer 7" xs="7" d="M137.6,121.8h-23.5c-2.3,0-4.1,1.9-4.1,4.1c0,2.3,1.9,4.1,4.1,4.1h23.5c2.3,0,4.1-1.9,4.1-4.1C141.8,123.6,139.9,121.8,137.6,121.8z"/><path fill="#e00037" data-title="Layer 8" xs="8" d="M137.6,155.2h-23.5c-2.3,0-4.1,1.9-4.1,4.1c0,2.3,1.9,4.1,4.1,4.1h23.5c2.3,0,4.1-1.9,4.1-4.1C141.8,157,139.9,155.2,137.6,155.2z"/><path fill="#e00037" data-title="Layer 9" xs="9" d="M137.6,197h-23.5c-2.3,0-4.1,1.9-4.1,4.1c0,2.3,1.9,4.1,4.1,4.1h23.5c2.3,0,4.1-1.9,4.1-4.1C141.8,198.9,139.9,197,137.6,197z"/><path fill="#e00037" data-title="Layer 10" xs="10" d="M197.5,121.8H174c-2.3,0-4.1,1.9-4.1,4.1c0,2.3,1.9,4.1,4.1,4.1h23.5c2.3,0,4.1-1.9,4.1-4.1C201.6,123.6,199.8,121.8,197.5,121.8z"/><path fill="#e00037" data-title="Layer 11" xs="11" d="M197.5,155.2H174c-2.3,0-4.1,1.9-4.1,4.1c0,2.3,1.9,4.1,4.1,4.1h23.5c2.3,0,4.1-1.9,4.1-4.1C201.6,157,199.8,155.2,197.5,155.2z"/><path fill="#e00037" data-title="Layer 12" xs="12" d="M197.5,197H174c-2.3,0-4.1,1.9-4.1,4.1c0,2.3,1.9,4.1,4.1,4.1h23.5c2.3,0,4.1-1.9,4.1-4.1C201.6,198.9,199.8,197,197.5,197z"/></g></g>
</svg>