<!--?xml version="1.0" encoding="utf-8"?-->
<!-- Svg Vector Icons : http://www.onlinewebfonts.com/icon -->

<svg version="1.1" xmlns="http://www.w3.org/2000/svg" xmlns:xlink="http://www.w3.org/1999/xlink" x="0px" y="0px" viewBox="0 0 256 256" enable-background="new 0 0 256 256" xml:space="preserve">
<metadata> Svg Vector Icons : http://www.onlinewebfonts.com/icon </metadata>
<g><g><path fill="#fbf2f2" data-title="Layer 0" xs="0" d="M183.5,24.8c-23.7,0-44.9,13.1-55.4,33l0,0c-10.6-20-31.8-33-55.5-33C38.1,24.8,10,52.3,10,86.3c0,16.5,2.3,33.4,20.3,55.5c17.6,21.6,93.6,85.9,97.6,89.3v0.2c0,0,0.1,0,0.1-0.1c0,0,0.1,0.1,0.1,0.1v-0.2c4-3.4,80-67.7,97.6-89.3c18-22.1,20.3-39,20.3-55.5C246,52.3,217.9,24.8,183.5,24.8z M219.5,136.8c-14.1,17.3-68.5,64.3-91.1,83.6l0,0l-0.4,0.4c-37.4-31.9-79.8-69.6-91.5-84c-17.1-21-18.6-36.5-18.6-50.5c0-29.6,24.5-53.7,54.7-53.7c20.5,0,39.1,11.1,48.5,28.8l6.9,13.1l7-13.1c9.4-17.8,28-28.8,48.5-28.8c30.2,0,54.7,24.1,54.7,53.7C238.1,100.3,236.7,115.8,219.5,136.8z"/></g></g>
</svg>