<!--?xml version="1.0" encoding="utf-8"?-->
<!-- Svg Vector Icons : http://www.onlinewebfonts.com/icon -->

<svg version="1.1" xmlns="http://www.w3.org/2000/svg" xmlns:xlink="http://www.w3.org/1999/xlink" x="0px" y="0px" viewBox="0 0 256 256" enable-background="new 0 0 256 256" xml:space="preserve">
<metadata> Svg Vector Icons : http://www.onlinewebfonts.com/icon </metadata>
<g><g><path fill="#e00037" data-title="Layer 0" xs="0" d="M135.5,10c8,2.5,16.5,3.9,24,7.6c36.8,17.9,49.9,61.1,31.6,97.7c-20.8,41.5-40.2,83.6-60.3,125.4c-0.7,1.5-1.5,3-2.6,5.3c-1.1-2.1-2-3.6-2.7-5.2c-18.8-39.5-37.8-79-56.4-118.6c-4.2-8.8-8.6-17.8-10.7-27.3c-8.8-38.4,19.3-78.2,58.4-84c1.3-0.2,2.6-0.7,3.9-1C125.6,10,130.5,10,135.5,10z M128,120.9c20.2,0,36.9-16.4,37-36.4c0.1-20.5-16.6-37.5-37-37.4c-19.9,0.1-36.7,16.8-36.8,36.7C91.1,104.1,107.8,120.9,128,120.9z"/></g></g>
</svg>