<!--?xml version="1.0" encoding="utf-8"?-->
<!-- Svg Vector Icons : http://www.onlinewebfonts.com/icon -->

<svg version="1.1" xmlns="http://www.w3.org/2000/svg" xmlns:xlink="http://www.w3.org/1999/xlink" x="0px" y="0px" viewBox="0 0 256 256" enable-background="new 0 0 256 256" xml:space="preserve">
<metadata> Svg Vector Icons : http://www.onlinewebfonts.com/icon </metadata>
<g><g><g><path fill="#e00037" data-title="Layer 0" xs="0" d="M21.6,11c-5.3,1.7-9.1,5.6-10.7,10.9c-0.9,3-0.9,4-0.8,48l0.1,45l1.1,2.7c1.5,3.6,5.4,7.6,9.1,9.1l2.7,1.1l34.7,0.1c27.2,0.1,34.7,0.2,34.5,0.7c-0.1,0.3-1.1,2.5-2.2,4.9c-7.5,17.2-8.3,38-2.3,57c1.8,5.7,7.1,16.2,10.9,21.4c4,5.6,13.4,15,19,19c5,3.5,15.6,8.9,21,10.7c10.6,3.5,22.1,4.9,32.5,3.9c6.9-0.6,13.8-2,19.6-4c5.4-1.8,16-7.2,21-10.7c5.6-4,15-13.4,19-19c3.7-5.3,9-15.7,10.9-21.6c6.4-19.5,5.1-41.3-3.5-59.6c-1.2-2.6-1.9-4.4-1.6-4.5c1.2-0.4,4.5-3.3,5.9-5.1c0.8-1.1,1.9-3.3,2.4-5c0.9-2.9,0.9-4.1,0.9-47.2c0-47.6,0-46.7-2.5-50.9c-1.5-2.7-4.4-5.3-7.6-6.7l-2.6-1.2l-104.4-0.1C26.1,10,24.4,10,21.6,11z M39.5,32.1v7.4h-1.8h-1.8v-4.3v-4.4l-1.8-0.1l-1.8-0.1l1.8-2.9c1.8-2.7,1.9-2.9,3.7-2.9h1.8V32.1z M85.1,28.7c-7.7,8-12.7,17.7-15.1,29.3c-1.1,5.4-1.1,16.7,0,22.1c2.4,11.6,7.5,21.3,15.1,29.3l3.8,3.9H71.6H54.3l-0.3-2.9c-0.8-6.8-4.6-14.5-9.1-18.6c-4.7-4.3-11.1-7.1-17.4-7.9l-2.9-0.3V69V54.4l2.9-0.3c6.3-0.7,12.6-3.6,17.4-7.9c4.5-4.1,8.3-11.8,9.1-18.6l0.3-2.9h17.3h17.3L85.1,28.7z M139.7,26.4c8.2,2.4,14.4,6.1,20.2,12.2c6.1,6.4,10,14,11.7,23c1,5.3,0.7,13.2-0.7,18.4l-1,3.7l-7,0.3c-3.9,0.2-7.9,0.5-9,0.6l-1.9,0.3l2.3-4.8c2.2-4.7,2.3-5,2.8-11.1c0.4-4.6,0.4-7,0-8.8c-0.3-1.4-0.6-3.8-0.8-5.5c-0.2-1.7-0.7-3.7-1.2-4.7c-0.6-1.3-0.8-2.3-0.6-4c0.5-4.5-1.2-7.5-6.9-11.7c-5-3.7-10.8-5.7-16.5-5.6c-4.3,0-9.5,1.4-14.5,4c-4.8,2.4-6.2,3.9-6.2,6.6c0,1.2-0.5,1.9-2.1,3.4l-2.1,1.9V48c0,4.2-0.8,6.2-3.2,8.4c-2.3,2-3.6,4.8-3.7,7.1c0,1.2-0.4,1.9-1.8,3.3c-1.3,1.2-1.8,2.1-1.8,3c0,0.8-0.2,1.6-0.5,1.8c-0.7,0.7,0.2,5.9,1.9,11c1.2,3.7,3.3,8,5.3,11l0.7,1.1L99.1,96c-2.2,0.7-4.3,1.3-4.6,1.3c-0.8,0.1-4.1-4.6-6.1-8.7c-1-2-2.4-5.6-3.1-7.8C84.1,77,84,75.9,84,69.2c0-8,0.3-9.9,3-17c3.6-9.4,12.9-19.1,22.2-23.3c7-3.2,12-4.1,20.1-3.9C134.4,25.1,136.4,25.3,139.7,26.4z M202.1,28.4c2.1,14,12.4,24.1,26.3,25.7l2.9,0.3V69v14.6l-3.6,0.5c-7.1,1.1-12.1,3.5-17.2,8.5l-3.2,3.1l-4.7-2.4c-5.1-2.7-11.5-5.3-15.4-6.3c-1.3-0.3-2.4-0.8-2.4-1.1s0.4-2.4,0.9-4.7c4.1-18.6-1.7-38.7-14.9-52.5l-3.7-3.8h17.3h17.2L202.1,28.4z M223.9,32.1v7.4H222h-1.8v-4.3v-4.4l-1.8-0.1l-1.8-0.1l1.8-2.9c1.8-2.7,1.9-2.9,3.7-2.9h1.8V32.1L223.9,32.1z M39.5,105.9v7.4h-1.8h-1.8v-4.3v-4.4l-1.8-0.1l-1.8-0.1l1.8-2.9c1.8-2.7,1.9-2.9,3.7-2.9h1.8V105.9z M179.1,100.1c13,3,23.2,8.7,32.5,18c12.3,12.3,18.7,27,19.4,44.3c1.1,26-13.2,50.2-36.6,61.9c-4.8,2.4-10.5,4.4-16.4,5.7c-4.1,0.9-6.1,1.1-13.3,1.1c-7.2,0-9.3-0.2-13.3-1.1c-13.7-3.1-25.2-9.4-34.4-19c-9-9.4-14.4-19.6-17.4-32.7c-0.9-4.1-1.1-6.1-1.1-13.3c0-9.5,0.8-14.2,3.5-22.1c5.7-16.1,17.6-29.6,32.9-37.3c4.9-2.4,10.6-4.4,16.1-5.6c6.4-1.3,6.9-1.4,15.4-1.2C172.7,98.9,175.3,99.1,179.1,100.1z M223.9,103.9v5.4l-1.8-1.8c-1-1-1.8-2-1.8-2.3c0-0.2-0.6-0.7-1.4-1.1c-0.7-0.4-1.4-0.8-1.4-1s0.6-1.3,1.4-2.5c1.2-2,1.5-2.2,3.2-2.2h1.8V103.9z"/><path fill="#e00037" data-title="Layer 1" xs="1" d="M157.5,124.6c0,3.9,0,3.9-1.2,4.2c-7.1,1.5-11.9,4.2-14.9,8.4c-5.6,7.8-4.6,17.9,2.5,24.4c3.9,3.6,8.2,5.4,20.1,8.4c4,1,8.4,2.3,9.8,2.8c3.7,1.4,5.9,4,5.9,7.1c0,6.7-8.6,11.2-17.9,9.5c-5.2-0.9-8.3-3.1-10.5-7.4l-1.1-2.3h-7.4c-6.8,0-7.4,0-7.1,0.8c0.1,0.5,0.5,1.8,0.7,2.9c0.9,3.4,3.6,8.2,6.3,10.8c3,2.9,6.9,5.1,11.3,6.2l3.4,0.9l0.1,4l0.1,4h7.3h7.4v-3.9v-3.9l3.6-0.8c9.5-2.1,15.6-7.7,17.8-16.1c0.9-3.4,0.9-6.5,0-10.3c-1.7-7.1-6.2-11.7-14.4-14.7c-1.7-0.6-7-2.2-11.8-3.4c-12.6-3.3-15.7-5.1-15.6-9.2c0.1-2.6,1.2-4.1,4.2-5.4c2.4-1.2,3.1-1.2,8.2-1.2c4.8,0,5.8,0.1,7.4,1c1.8,1,4.8,3.9,4.8,4.7c0,0.3,3.1,0.5,7.8,0.5h7.8l-0.6-2.3c-1.9-7.3-8.7-13.5-16.5-15l-2.7-0.5v-4v-4.1h-7.4h-7.4L157.5,124.6L157.5,124.6z"/></g></g></g>
</svg>