<!--?xml version="1.0" encoding="utf-8"?-->
<!-- Svg Vector Icons : http://www.onlinewebfonts.com/icon -->

<svg version="1.1" xmlns="http://www.w3.org/2000/svg" xmlns:xlink="http://www.w3.org/1999/xlink" x="0px" y="0px" viewBox="0 0 256 256" enable-background="new 0 0 256 256" xml:space="preserve">
<metadata> Svg Vector Icons : http://www.onlinewebfonts.com/icon </metadata>
<g> <path fill="#e00037" data-title="Layer 0" xs="0" d="M125.1,10h5.3c5.3,0.6,10.6,1,15.9,1.8c22.1,3.2,41.4,12.5,58.4,26.8c11,9.3,20,20.5,26.9,33.1 c7.1,13.1,11.6,27.2,13.3,42.1c0.4,3.4,0.8,6.8,1.2,10.1v7.9c-0.5,4.2-1,8.3-1.5,12.5c-1.4,11.3-4.3,22.2-9.5,32.4 c-3.6,7.2-7.7,14.1-12.2,20.8c-5.5,8.3-12.6,15.3-20.3,21.6c-10.3,8.4-21.8,15-34.4,19.5c-10.7,3.8-21.7,6.3-33.1,6.8 c-1.7,0.1-3.5,0.3-5.2,0.5h-3.7c-1.7-0.2-3.5-0.3-5.2-0.5c-7.6-1.1-15.4-1.8-22.8-3.6c-14.7-3.6-28.1-10.2-40.3-19.3 c-8-6-15.1-12.8-21.4-20.5c-6.2-7.8-11.5-16.1-15.6-25.2c-5-11-8.3-22.5-9.8-34.5c-0.5-4.2-0.7-8.4-1.1-12.6v-3.7 c0.1-1,0.3-2.1,0.4-3.1c0.9-7,1.4-14.2,2.8-21.1c3-15.3,9.5-29.2,18.4-41.8c7.6-10.8,16.9-20.1,27.7-27.8 c10.4-7.5,21.7-13.2,34-16.9c9.7-3,19.7-4.9,30-5C123.9,10.4,124.5,10.1,125.1,10z M88.8,221.3c9.2,4.2,18.6,6.3,28.2,7.4 c8.6,1,17.1,0.7,25.8-0.6c9.1-1.3,17.8-3.8,26.2-7.5c11-4.9,20.8-11.6,29.5-19.9c1.4-1.4,1.8-2.6,0.8-4.3c-0.9-1.5-1.6-3.2-2.5-4.7 c-1-1.7-0.9-3.2,0-5.1c1.5-3.4,3-7,3.8-10.6c1-4.6,0.3-9-3.3-12.7c-2-2.1-3.8-4.6-5.2-7.3c-1.4-2.7-2.2-5.8-3.4-8.9 c-0.6,0.5-1.2,1.1-1.8,1.5c-3.5,2.4-6.9,5.1-10.7,7.1c-5,2.7-9.9,2.6-14.1-2c-1.1-1.2-2.8-2.2-4.4-2.8c-3.6-1.2-5.8-3.9-7.6-6.9 c-0.9-1.5-1.8-3-2.6-4.6c-5.3-10.2-3.2-17.6,5.6-24.5c1.8-1.4,2.4-2.7,2.7-4.8c0.5-3.3,1.4-6.7,2.7-9.8c0.7-1.5,2.6-3.3,4.2-3.5 c4.1-0.5,7.1-2.8,10.6-4.4c2.7-1.3,5.6-2.6,8.6-3.1c5.8-0.9,10.2,2.4,14.2,6.1c1.1,1,1.7,0.9,2.9,0.3c3.3-1.6,6.6-3.2,10.1-4.4 c3.8-1.3,7.7-2.2,11.5-3.2c0-0.2,0.1-0.5,0-0.8c-4-9.5-9.6-18-16.3-25.7c-0.4-0.4-1.5-0.5-2.2-0.4c-1.4,0.2-2.6,0.8-4,1.1 c-3.5,0.7-4.1,1.5-2.7,4.8c1,2.4,2.3,4.7,3.3,7.2c0.5,1.3,0.4,2.8,0.6,4.3c-1.4,0.1-3.2,0.8-4.2,0.2c-2.7-1.4-5.2-3.2-7.5-5.1 c-4.5-3.9-10.7-3.6-14.4,1c-1.8,2.3-3.1,4.9-4.9,7.2c-2.4,3.1-5.1,6.1-7.7,9.1c-0.3-0.1-0.6-0.2-0.9-0.3c0.4-5.7-2.9-9.8-6.6-14.3 c1.9-0.3,3.1-0.7,4.3-0.8c1.6-0.1,3.2,0.1,4.7-0.2c1.1-0.2,2.2-0.9,3.3-1.3c-0.5-1-0.7-2.2-1.4-2.9c-4.1-4.4-2.6-5.7,1.4-8.7 c0.3-0.3,0.8-0.4,1.1-0.7c2.4-1.8,5.4-3.4,5.7-6.8c0.5-4.7,3.4-6.6,7.5-7.5l6.7-1.5l0.2-0.7l-13.4-7.7c1.8,5.2,1.6,7.3-2.6,10.5 c-2.9,2.2-6.4,4-10,5.1c-8,2.3-9.7,0.9-8.4-7.3c0.7-4.2,1.7-8.2,2.7-12.3c0.5-2,0.3-3.1-2.1-3.7c-11.5-2.7-23-3.7-34.8-2.5 c-5.8,0.6-5.8,0.3-7.1,7.4c-0.2,1-0.4,2-0.7,3.1c-1.5-0.5-2.7-0.8-3.8-1.2c-3.9-1.5-7.3-0.5-9.5,2.9c-2.6,3.9-4.6,8.1-6.9,12.2 c3.3,2,4.5,5.7,3.8,9.9c-0.8,4.5-4.4,3.1-7.8,3.5c1.5,0.9,2.6,1.5,3.6,2.1c2.7,1.7,2.9,2.5,0.9,4.9c-1.1,1.4-2.5,2.5-3.5,3.9 c-1,1.3-1.8,1.1-3.1,0.6c-2.9-1.1-6-2.1-9-2.7c-4.3-0.8-5.7,0.3-6.2,4.5c-0.4,3.6-2.4,5.7-5.6,6.4c-2.7,0.6-5.5,0.8-8.3,0.9 c-5.8,0.3-6.7,1.1-6.9,6.8c-0.1,2-0.2,4-0.4,6c-0.2,2-0.8,3.9-3.4,4c-2.5,0.1-3.8-1.3-4.4-3.7c-0.7-2.7-1.5-5.4-2.5-8 c-0.3-0.9-1.3-1.6-2.3-2.9c-1.3,3.7-2.2,6.7-3.3,9.6c-1.3,3.5-1.7,6.4,0.3,10.2c2.9,5.8,4.1,12.4,6.4,18.6 c1.3,3.6,3.2,6.9,4.8,10.2c0.9-0.3,1.1-0.3,1.2-0.4c0.4-0.3,0.7-0.5,1-0.8c2.6-2.3,5.3-2.8,8.6-1c2.4,1.3,5.5,2.3,8.2,2.2 c5.1-0.1,8.3,1.9,10.2,6.5c0.3,0.8,1.1,1.9,1.8,2c6,0.6,9.6,4.8,13.1,9c5.9,7.3,13,12.9,22.1,15.9c3.1,1,6.2,3,8.7,5.1 c2.7,2.2,1.9,6.2-1.2,7.9c-2.3,1.2-4.3,2.6-4.7,5.3c-0.5,3.3-0.9,6.6-1,9.9c-0.2,4.6-0.8,5.1-5.4,5.5c-2.4,0.2-5.3,0.7-7,2.2 C93.8,209.9,91.2,215.5,88.8,221.3L88.8,221.3z M27.6,117.1c-2.7,9.1,0.6,34,5.5,46.4c7.5,19.2,20.5,34.6,26.7,38.5 c-2.1-4.3-4.1-8.3-6-12.3c-0.8-1.6-1.6-2.8-3.5-3.5c-1.7-0.6-3.2-2.2-4.2-3.7c-3.7-5.6-5.4-12-5.9-18.6c-0.5-6.1-1.7-12.4-0.8-18.3 c0.7-4.4-0.7-6.6-3.4-9.1c-0.4-0.4-0.8-0.7-1.1-1.1c-1.1-1.1-1.3-2.2-0.5-3.7c0.7-1.4,1.3-3.3,1-4.7 C34.2,122.7,31.4,119.6,27.6,117.1z"/></g>
</svg>